<svg xmlns="http://www.w3.org/2000/svg" viewBox="0 0 800 480" width="800" height="480" role="img" aria-label="API RESTful Django">
  <defs>
    <radialGradient id="p6glow" cx="50%" cy="10%" r="85%">
      <stop offset="0%" stop-color="#0ea5e9" stop-opacity=".40"/>
      <stop offset="70%" stop-color="#0ea5e9" stop-opacity="0"/>
    </radialGradient>
  </defs>
  <rect width="800" height="480" fill="#121212"/>
  <rect width="800" height="480" fill="url(#p6glow)"/>
  <g stroke="#0ea5e9" stroke-width="2" opacity=".55">
    <path d="M400 240 L180 130 M400 240 L180 350 M400 240 L620 130 M400 240 L620 350 M400 240 L400 90 M400 240 L400 400"/>
  </g>
  <g fill="#0f0f0f" stroke="#0ea5e9" stroke-width="2.5">
    <circle cx="180" cy="130" r="26"/>
    <circle cx="180" cy="350" r="26"/>
    <circle cx="620" cy="130" r="26"/>
    <circle cx="620" cy="350" r="26"/>
    <circle cx="400" cy="90" r="22"/>
    <circle cx="400" cy="400" r="22"/>
  </g>
  <circle cx="400" cy="240" r="52" fill="#0ea5e9" opacity=".18"/>
  <circle cx="400" cy="240" r="52" fill="none" stroke="#0ea5e9" stroke-width="3"/>
  <text x="400" y="248" font-family="Segoe UI, Arial, sans-serif" font-size="20" font-weight="700" fill="#ffffff" text-anchor="middle">API</text>
  <g font-family="Segoe UI, Arial, sans-serif" font-size="13" fill="#c6c8c9" text-anchor="middle">
    <text x="180" y="135">GET</text>
    <text x="180" y="355">POST</text>
    <text x="620" y="135">PUT</text>
    <text x="620" y="355">DELETE</text>
  </g>
  <text x="60" y="60" font-family="Segoe UI, Arial, sans-serif" font-size="24" font-weight="700" fill="#ffffff">API RESTful</text>
  <text x="60" y="86" font-family="Segoe UI, Arial, sans-serif" font-size="15" fill="#0ea5e9">Django &#183; PostgreSQL</text>
</svg>
